<svg width="1024" height="1024" viewBox="0 0 1024 1024" fill="none" xmlns="http://www.w3.org/2000/svg">
<g clip-path="url(#clip0_981_27787)">
<path d="M0 0H1024V1024H0V0Z" fill="#FEFEF0"/>
<path d="M710.437 215.935C710.656 215.993 710.874 216.051 711.092 216.108C797.138 270.129 854.246 366.158 866.96 466.333C867.773 472.744 869.674 484.126 868.723 487.656C865.622 487.988 861.429 477.344 856.588 476.085C852.942 475.136 849.306 476.589 848.342 480.559C847.4 484.436 854.644 490.821 856.041 494.487C857.107 497.287 857.27 501.274 859.355 503.489C860.795 504.796 868.034 505.755 868.549 507.989C870.808 517.804 868.428 547.507 866.629 556.827C863.487 560.074 860.887 561.136 857.211 563.382C845.596 570.479 840.871 571.425 828.085 573.42C826.787 574.873 824.526 577.355 824.505 579.327C824.321 596.517 851.689 577.764 856.275 584.963C856.468 589.347 852.864 596.656 851.277 601.223C849.486 606.378 845.956 618.308 843.428 622.537C833.373 639.356 815.115 646.495 804.999 664.084C795.938 679.84 796.252 691.491 801.143 708.584C804.672 720.919 801.069 724.739 794.965 734.746C765.914 711.86 715.11 717.656 680.29 720.938C677.766 721.176 670.039 719.438 667.413 718.935C661.697 706.16 670.5 703.788 670.556 692.794C670.776 680.297 662.922 666.556 655.817 657.007C645.204 642.742 654.614 636.079 653.858 621.96C653.435 614.061 639.036 617.084 634.638 615.862C632.753 615.338 629.413 608.001 626.78 607.343C617.895 603.205 604.421 611.666 595.232 614.102L594.344 614.332C591.838 613.596 589.255 613.027 586.711 612.425C580.805 615.324 576.193 621.478 568.871 617.481C559.467 612.348 547.984 603.67 540.352 595.985C536.092 591.697 530.265 572.22 529.172 565.77C529.307 554.427 534.339 552.28 528.776 539.726C535.669 533.866 542.574 530.258 549.91 523.361C551.191 518.263 550.991 514.976 550.76 509.774C545.867 511.964 521.736 528.311 518.924 528.266L518.151 526.797C511.956 526.619 501.214 526.476 495.235 526.584C492.17 517.879 487.962 510.77 479.836 505.963C468.74 499.406 454.685 500.729 445.008 509.241C442.704 511.251 439.142 515.871 436.501 516.555L435.977 515.835C436.837 511.148 447.853 503.737 452.237 501.769C459.832 498.293 468.523 498.096 476.268 501.225C487.524 505.717 492.5 513.308 497.116 523.883C503.56 524.151 508.018 524.729 514.382 525.602C519.945 515.939 524.166 513.593 533.22 507.457C540.17 502.748 547.152 497.957 554.163 493.309C566.659 485.961 561.726 477.818 567.972 467.018C570.337 462.929 577.23 459.547 580.278 455.42C582.995 451.743 584.902 447.521 587.856 444.091C595.535 444.594 595.846 444.394 600.578 450.684C605.636 452.516 608.663 446.692 612.762 444.377C618.686 441.032 625.833 443.348 632.19 442.719C634.378 442.502 637.504 440.324 640.53 439.956C646.485 439.233 656.807 437.373 661.871 441.289C666.228 444.658 666.425 449.656 667.22 454.494C671.761 459.662 683.236 466.576 689.936 468.522C696.582 470.452 700.946 471.578 707.284 474.825C706.168 469.006 706.837 461.602 713.629 459.219C720.273 456.983 726.178 465.609 731.264 466.554C745.604 469.22 753.082 469.921 765.857 477.404C763.565 462.119 769.138 471.204 774.939 466.662C777.408 462.472 780.394 443.478 776.647 439.736C773.332 439.095 773.697 441.995 769.965 444.365C766.533 444.91 759.392 440.753 755.961 439.107C753.169 440.315 748.233 443.607 745.472 445.33C738.827 436.692 737.989 428.406 732.772 419.272C728.993 412.656 724.145 416.175 720.041 419.558C724.22 426.657 727.523 436.203 713.357 432.479C708.59 431.226 709.57 420.682 707.939 417.337C705.406 412.141 682.252 389.887 676.775 392.24C675.538 393.894 675.431 395.515 675.017 397.573C677.405 401.194 679.495 404.358 682.784 407.278C688.276 412.155 693.989 415.114 698.697 420.887C696.178 424.462 685.436 435.423 681.513 436.951C679.98 431.826 699.049 423.352 671.207 413.58C666.91 418.462 661.867 422.633 656.265 425.939C658.216 420.961 666.679 411.244 667.052 407.755C667.628 402.366 659.748 391.481 653.278 400.069C650.14 404.233 638.871 402.488 633.611 402.256C629.882 403.987 625.919 408.209 622.483 410.767C619.783 412.777 617.974 413.874 615.029 415.593C615.08 420.121 614.896 424.163 613.089 428.4C608.422 439.348 594.692 444.149 584.056 438.922C579.228 436.57 575.533 432.396 573.783 427.32C568.809 412.691 580.883 397.012 596.542 399.431C600.383 400.024 602.69 401.277 605.986 403.123C608.96 399.149 610.209 397.281 611.592 392.496C610.371 386.855 607.564 380.25 601 379.197C595.605 378.332 592.072 381.135 588.002 384.177C594.959 375.03 605.697 365.999 616.478 361.544C627.961 356.798 628.332 345.895 636.51 338.364C639.732 335.398 649.909 333.523 652.281 330.554C653.247 326.636 651.393 322.802 650.071 318.904C651.688 315.814 655.466 309.46 659.908 312.615C663.787 315.37 664.356 321.755 665.114 326.18C672.068 326.917 674.209 325.385 681.626 328.24C685.201 327.253 688.873 325.857 692.451 324.863C700.773 322.551 707.029 323.426 712.363 315.496C712.447 313.124 712.547 309.57 713.528 307.457C716.486 301.082 721.546 302.967 726.616 301.05C729.558 297.881 726.156 294.646 726.723 290.92C727.237 287.54 745.161 290.033 750.24 286.975C751.129 285.489 751.032 286.239 750.728 284.684C745.939 279.239 728.246 284.756 722.355 287.246C711.351 291.266 709.287 287.289 709.515 277.352C709.84 263.157 716.349 263.672 722.484 253.458C724.264 250.495 719.339 248.037 716.483 247.619C702.52 245.577 706.419 255.177 702.607 263.946C700.44 268.756 692.905 274.153 688.56 277.348C695.409 281.259 699.887 285.282 695.668 294.081C692.402 299.927 690.214 308.034 685.578 312.9C672.17 326.975 670.84 304.831 665.871 298.079C663.387 294.703 648.634 302.074 644.215 300.579C642.679 300.059 640.058 300.302 638.835 298.173C636.436 294.077 637.364 280.748 637.799 276.285C638.349 267.406 648.13 269.146 652.202 265.277C660.685 257.217 671.894 248.745 679.992 240.321C680.407 239.889 681.451 232.239 681.663 231.159C683.93 228.741 685.73 226.983 688.177 224.743C697.715 223.369 702.518 221.479 710.437 215.935Z" fill="black"/>
<path d="M575.633 513.804C587.097 512.025 597.816 519.922 599.513 531.398C601.211 542.874 593.237 553.537 581.749 555.152C570.377 556.751 559.845 548.874 558.165 537.514C556.484 526.154 564.285 515.566 575.633 513.804Z" fill="#FEFEF0"/>
<path d="M576.728 523.772C582.572 522.601 588.25 526.417 589.375 532.269C590.5 538.122 586.64 543.77 580.779 544.849C574.982 545.917 569.409 542.109 568.296 536.32C567.184 530.531 570.949 524.929 576.728 523.772Z" fill="black"/>
<path d="M638.822 462.93C649.825 461.729 659.752 469.59 661.103 480.576C662.455 491.562 654.73 501.595 643.764 503.097C636.535 504.087 629.334 501.109 624.915 495.303C620.496 489.498 619.545 481.763 622.424 475.059C625.304 468.356 631.569 463.721 638.822 462.93Z" fill="#FEFEF0"/>
<path d="M638.848 472.803C644.53 471.274 650.371 474.663 651.864 480.355C653.357 486.047 649.932 491.866 644.231 493.324C638.579 494.768 632.822 491.38 631.342 485.738C629.863 480.096 633.215 474.318 638.848 472.803Z" fill="black"/>
<path d="M775.02 570.929C785.919 570.806 794.876 579.5 795.078 590.398C795.279 601.297 786.65 610.316 775.753 610.596C764.745 610.879 755.614 602.142 755.41 591.132C755.206 580.122 764.009 571.053 775.02 570.929Z" fill="#FEFEF0"/>
<path d="M774.247 580.052C780.176 579.407 785.516 583.664 786.207 589.588C786.898 595.512 782.682 600.884 776.764 601.621C770.781 602.366 765.336 598.093 764.637 592.105C763.939 586.116 768.253 580.705 774.247 580.052Z" fill="black"/>
<path d="M774.28 486.805C775.826 486.823 776.791 486.951 778.195 487.615C780.215 488.594 781.949 490.077 783.229 491.921C785.95 495.789 787.374 502.227 789.44 505.338C794.491 512.945 797.844 512.875 801.52 522.026C800.381 523.483 798.998 524.995 797.771 526.402C805.36 540.584 822.663 547.156 818.894 567.575C813.531 572.71 808.865 567.256 805.69 562.978C794.416 547.564 791.095 528.926 783.87 511.553C781.248 505.249 771.267 491.978 774.28 486.805Z" fill="#FEFEF0"/>
<path d="M509.215 118.237C530.884 117.739 554.758 120.079 576.069 123.699C652.765 136.112 724.119 170.798 781.258 223.442C856.416 293.853 901.486 390.691 905.76 493.908C909.377 581.246 886.079 670.254 835.951 742.174C827.095 754.879 818.104 766.917 807.478 778.272C807.458 772.968 807.38 763.467 806.097 758.437C861.443 688.724 888.569 613.209 891.68 524.346C895.261 424.006 858.986 326.327 790.781 252.646C733.316 191.634 657.392 151.2 574.695 137.568C555.468 134.387 538.334 133.208 519.035 132.546C499.382 132.427 481.445 133.01 461.819 135.442C404.569 142.86 349.747 163.166 301.479 194.833C217.387 250.731 158.905 337.706 138.865 436.673C120.717 527.26 134.83 621.342 178.758 702.617C190.108 723.676 201.225 737.771 214.084 757.252C213.47 764.004 213.476 770.581 213.388 777.356C153.738 707.028 119.871 618.45 117.386 526.265C114.605 421.97 152.228 318.413 224.129 242.21C300.657 161.103 398.196 120.974 509.215 118.237Z" fill="black"/>
<path d="M190.042 518.648C192.246 518.555 195.955 518.159 197.797 519.112C209.689 525.262 185.551 544.514 192.204 548.802C195.232 549.158 196.693 548.023 199.493 546.651C205.364 547.329 210.787 549.492 215.962 552.248C215.878 558.093 213.753 564.705 214.939 570.816C216.546 579.095 221.749 583.676 228.195 588.135L228.743 587.88C237.793 583.699 240.652 584.525 249.976 587.95C259.235 584.129 266.301 572.476 274.405 572.599C278.93 575.1 276.397 582.26 280.201 582.824L284.253 578.573C293.534 568.958 295.261 579.79 301.117 579.694C303.187 578.933 303.308 578.589 304.822 576.856C306.243 578.738 307.571 580.778 308.895 582.738C307.694 589.337 306.652 593.723 309.418 600.467C311.838 606.513 316.63 611.302 322.677 613.718C330.096 616.71 340.114 615.81 346.339 610.508C349.509 607.809 354.938 601.924 359.375 604.953C366.827 610.04 373.432 619.15 376.253 627.711C378.551 634.688 378.445 649.929 387.93 651.258C391.162 651.901 398.63 647.214 401.428 648.706C406.582 651.453 408.554 654.507 414.605 656.91C418.224 655.968 423.07 653.769 427.103 652.485C431.49 654.472 434.987 657.868 439.021 660.472C443.219 663.182 455.506 667.016 455.783 672.59C456.403 685.071 445.943 697.833 439.562 707.533C438.196 709.855 433.979 715.814 434.298 718.116C435.903 718.419 436.494 718.513 438.066 719.107C434.69 721.105 391.467 720.17 383.643 719.907C368.176 719.386 350.799 717.43 334.964 719.547C330.966 720.082 325.802 721.411 321.701 721.298C301.698 717.345 283.283 714.565 262.827 716.674C256.151 706.484 253.166 699.148 247.557 688.848C243.324 681.073 235.746 674.244 232.29 664.543C226.237 646.734 241.069 627.939 248.075 612.383C252.679 602.162 248.364 594.901 238.577 590.737C235.111 591.992 226.455 596.85 223.292 594.857C220.105 592.916 202.265 578.736 201.525 576.698C193.711 555.175 194.543 566.956 178.407 560.381L177.764 560.113C172.987 545.71 164.509 552.789 158.643 549.571C156.309 546.886 156.005 538.152 155.562 534.286C160.548 533.994 175.707 534.239 180.031 532.844C183.238 531.809 185.269 521.552 190.042 518.648Z" fill="black"/>
<path d="M300.414 266.492C307.131 266.545 314.466 267.751 321.177 268.523C330.156 269.556 333.355 274.033 331.842 282.631C341.899 297.403 341.14 286.044 350.831 283.74C359.525 281.673 361.273 292.887 362.221 298.735C362.913 303.006 364.612 310.413 366.369 314.572C368.748 319.622 380.423 322.143 380.177 328.244C379.998 332.656 370.257 336.77 367.905 339.488C360.628 347.894 358.463 346.901 348.12 346.477C344.61 348.904 342.462 350.292 338.683 352.179C336.547 350.527 334.23 348.899 332.038 347.305L331.247 347.676C328.818 348.843 318.122 355.101 317.307 357.451C320.904 359.953 329.776 355.053 333.93 357.235C336.194 365.568 327.688 367.321 336.851 374.866C340.469 374.956 344.352 374.382 346.657 376.782C347.197 382.771 337.815 381.948 334.021 385.354C332.016 387.154 329.135 390.121 326.896 391.188C320.659 390.491 317.795 371.653 308.377 387.423C306.73 390.181 303.993 394.191 301.918 396.631C294.83 397.69 292.538 399.944 286.871 403.995C263.825 404 248.615 425.259 261.343 445.867C252.765 453.488 247.149 452.092 238.884 457.905C233.928 462.692 236.505 474.336 237.291 480.417C238.042 486.228 237.156 497.168 229.391 496.799C224.638 494.599 225.849 488.586 226.642 484.616C228.578 478.63 224.934 477.579 220.122 475.133C216.65 473.367 213.042 471.755 209.536 470.04L203.039 472.865C194.553 471.706 191.382 469.242 186.411 476.015C183.186 480.409 173.126 475.012 168.911 474.787C164.309 474.54 160.696 485.604 156.345 485.137C155.469 481.698 157.766 464.56 158.317 460.391C165.184 410.463 182.579 362.564 209.351 319.865C214.232 311.971 222.475 299.106 228.795 292.315L229.231 300.737C234.995 304.455 241.739 305.392 247.183 307.779C253.278 310.452 268.396 317.336 273.471 321.105C270.968 331.281 267.89 331.334 273.219 342.273C291.583 334.271 283.083 334.013 281.444 320.333C280.689 314.035 292.95 312.447 295.971 309.626C297.964 307.765 293.796 300.054 293.921 297.635C293.698 291.841 299.552 289.512 302.265 285.693C307.407 278.456 294.41 273.98 300.414 266.492Z" fill="black"/>
<path d="M716.535 738.71C731.6 737.436 759.88 739.043 773.254 745.77C779.26 748.813 784.593 754.712 786.188 761.411C790.666 780.218 788.042 801.355 766.747 807.185C790.629 813.681 797.712 826.637 794.315 850.812C793.065 859.709 790.327 864.138 783.153 869.442C762.387 881.274 716.129 879.817 693.234 874.249C693.589 830.131 693.657 786.01 693.438 741.891C702.034 740.029 707.911 739.385 716.535 738.71Z" fill="black"/>
<path d="M735.799 768.156C736.575 768.096 737.352 768.045 738.129 768.002C751.316 767.303 761.538 778.667 750.506 789.067C745.082 792.13 740.306 792.267 734.429 791.312C734.46 784.465 734.069 776.887 734.503 770.006C734.585 768.707 734.914 768.77 735.799 768.156Z" fill="#FEFEF0"/>
<path d="M734.208 823.998C736.54 823.898 738.791 823.784 741.111 824.182C751.713 826.002 758.741 834.186 750.9 843.82C748.775 845.385 743.69 847.442 741.032 847.623C730.914 848.309 733.865 830.508 734.208 823.998Z" fill="#FEFEF0"/>
<path d="M603.805 740.211C612.168 739.772 616.975 740.505 624.997 742.654C625.535 772.522 624.406 802.669 625.282 832.551C625.336 834.378 625.995 839.516 627.036 840.805C629.871 844.316 638.741 845.052 642.11 841.879C643.348 840.705 643.745 838.372 643.823 836.793C644.32 826.72 644.322 816.539 644.376 806.448L644.515 742.241C658.873 739.242 667.377 739.983 681.647 742.472C684.056 762.461 684.526 772.926 684.867 793.034C684.898 800.461 684.804 807.887 684.586 815.311C684.206 828.265 684.245 862.787 674.069 871.306C663.677 880.006 631.709 877.405 617.867 877.355C610.347 876.931 598.362 875.832 593.517 869.305C584.324 856.922 584.83 836.06 584.451 821.199C583.636 794.852 584.387 768.481 586.701 742.223C592.443 741.111 597.986 740.58 603.805 740.211Z" fill="black"/>
<path d="M551.388 739.707C559.895 739.043 567.679 740.233 575.724 742.911L575.791 874.809C560.999 877.547 551.993 877.254 537.28 874.153C536.817 864.191 537.071 854.146 537.123 844.172C537.147 839.476 537.774 833.665 536.748 829.086C536.515 828.048 536.139 827.366 535.392 826.63C533.337 824.605 530.212 824.199 527.456 824.243C524.94 824.284 521.859 824.818 520.084 826.792C517.075 830.139 518.35 867.042 518.347 873.982C514.549 875.006 511.518 875.666 507.648 876.408C497.432 877.432 489.437 876.854 479.534 874.276L479.5 743.023C492.19 739.336 505.634 739.09 518.451 742.311C518.568 749.23 517.672 782.327 519.631 786.686C524.022 791.108 536.218 791.246 536.832 783.362C537.206 778.559 537.043 773.445 537.023 768.605L536.971 742.367C542.198 740.791 545.997 740.209 551.388 739.707Z" fill="black"/>
<path d="M277.004 736.718C294.465 736.447 309.483 739.754 325.963 744.664C325.969 754.285 326.338 767.598 325.508 776.885C317.61 774.431 309.065 773.099 300.874 771.976C295.272 771.209 283.118 769.534 278.43 773.494C274.762 776.593 273.464 782.687 272.894 787.269C271.546 798.109 269.961 836.52 276.575 844.447C277.837 845.959 279.54 847.006 281.543 847.081C283.428 847.152 285.702 846.292 287.052 844.97C291.754 840.371 290.885 828.862 290.8 822.828C288.337 822.588 285.945 822.04 283.517 821.549C283.406 811.794 283.5 801.928 283.518 792.164C291.904 791.545 319.502 791.601 328.156 792.414L328.171 799.875C328.182 822.08 327.776 846.247 328.41 868.284C311.578 879.106 259.215 882.983 242.36 870.188C229.085 860.112 232.295 816.29 231.848 800.639C231.515 788.973 232.6 775.473 234.769 764.191C239.151 741.402 257.051 738.033 277.004 736.718Z" fill="black"/>
<path d="M504.39 155.731C522.97 155.554 548.085 155.882 566.448 159.677C559.833 168.351 558.582 169.618 549.576 175.482C549.367 178.805 550.477 189.459 549.903 190.41C544.164 199.906 533.425 195.944 524.822 208.606C527.546 210.642 531.867 213.724 531.078 217.838C529.67 226.226 517.219 226.419 510.754 227.279C497.831 228.998 493.076 233.949 484.076 242.586C482.755 243.853 477.002 246.463 474.801 246.142L474.218 245.145C474.322 243.75 474.469 243.204 474.116 241.854C473.534 241.583 472.902 241.133 472.411 241.384C465.703 244.823 454.727 260.879 450.35 266.762C443.754 274.813 433.864 289.394 427.619 272.105C423.294 273.166 418.966 274.897 415.135 272.589C413.14 269.035 411.243 248.043 411.141 243.023C411.992 238.331 414.471 229.003 418.503 226.212C421.504 224.135 433.078 218.253 428.805 213.712C425.196 213.738 420.54 219.022 417.81 217.093C416.716 211.735 423.456 207.681 425.358 203.524C431.471 190.157 429.308 179.038 425.555 166.246C450.306 159.698 478.824 156.618 504.39 155.731Z" fill="black"/>
<path d="M432.51 740.743C445.936 740.555 459.093 740.742 472.449 742.188C472.477 747.683 473.825 772.182 471.008 775.464C469.798 776.874 459.834 774.387 457.422 774.381C455.276 774.376 451.274 775.175 449.968 777.11C448.42 779.404 449.462 863.146 449.471 874.127C441.336 876.531 435.561 877.048 427.144 877.079C419.849 876.912 414.874 875.891 407.879 874.055L408.543 810.051C408.685 800.379 409.245 789.66 408.867 780.017C408.419 768.591 392.85 779.037 388.073 774.626C386.232 769.249 387.251 747.86 387.482 741.101L432.51 740.743Z" fill="black"/>
<path d="M342.324 740.687C347.801 739.914 372.749 740.311 378.498 740.985C378.672 767.559 377.925 792.837 377.61 819.226C377.489 830.661 377.296 842.094 377.031 853.527C376.901 859.783 376.932 867.593 376.349 873.654C375.398 874.841 373.7 875.009 372.115 875.423C359.964 878.501 348.989 877.434 337.087 874.108C336.461 845.811 336.961 814.857 336.992 786.418L336.991 758.853C336.982 754.129 336.74 746.276 337.253 741.773C338.654 740.779 340.546 740.839 342.324 740.687Z" fill="black"/>
<path d="M422.905 358.258C441.487 357.301 457.352 371.533 458.412 390.109C459.472 408.685 445.329 424.63 426.759 425.793C408.042 426.965 391.945 412.686 390.876 393.963C389.808 375.24 404.176 359.222 422.905 358.258Z" fill="black"/>
<path d="M420.299 360.834C431.541 359.263 442.76 363.858 449.669 372.863C456.579 381.869 458.113 393.895 453.684 404.346C449.256 414.798 439.55 422.061 428.273 423.362C411.127 425.338 395.58 413.158 393.397 396.037C391.214 378.916 403.206 363.224 420.299 360.834Z" fill="#FEFEF0"/>
<path d="M421.086 369.684C433.371 367.736 444.939 376.029 447.04 388.289C449.141 400.549 440.993 412.22 428.76 414.473C420.71 415.956 412.485 412.994 407.228 406.72C401.971 400.447 400.494 391.83 403.363 384.164C406.231 376.497 413.001 370.966 421.086 369.684Z" fill="black"/>
<path d="M529.623 407.102C547.85 404.736 564.596 417.453 567.21 435.647C569.825 453.84 557.337 470.758 539.18 473.62C527.214 475.506 515.158 470.805 507.627 461.316C500.096 451.827 498.255 439.018 502.81 427.792C507.364 416.567 517.609 408.661 529.623 407.102Z" fill="black"/>
<path d="M352.411 192.531C354.331 194.403 356.286 202.089 358.756 203.214C376.008 211.074 364.684 211.565 365.106 223.824C365.296 229.34 377.338 227.843 378.338 234.417C379.195 240.042 374.477 245.378 369.176 247.127C366.218 247.833 364.314 242.71 361.774 240.798C358.004 240.15 355.109 244.589 354.622 247.754C353.867 252.653 362.052 252.105 365.127 252.001C361.927 258.932 357.829 265.039 351.454 269.384L346.18 265.304C343.041 265.032 340.04 264.633 336.919 264.225C335.109 261.702 333.499 257.196 330.823 255.601C327.184 256.49 325.202 256.775 321.447 255.593C320.484 254.695 319.458 252.632 319.657 251.374C321.383 240.441 342.305 243.958 342.394 229.836C342.424 225.055 336.548 226.626 333.464 227.926C331.255 228.585 331.549 228.644 329.419 228.119C326.61 224.759 330.462 221.61 329.285 218.525C326.218 216.083 317.919 217.059 314.907 219.313C313.587 220.301 313.519 226.315 313.415 228.124C304.974 239.485 294.26 229.783 292.06 237.923C292.771 240.785 298.398 241.684 297.389 246.128C297.335 247.632 291.936 254.902 291.01 255.029C284.46 255.93 273.947 252.82 267.484 251.381C282.971 233.856 331.16 201.206 352.411 192.531Z" fill="black"/>
<path d="M347.908 480.135C366.269 478.441 376.506 488.528 379.279 505.815L379.399 506.594L381.173 507.041C381.904 509.55 380.33 510.887 378.711 512.757C373.151 519.181 370.16 525.976 369.892 534.693C369.651 540.745 371.116 546.744 374.121 552.003C385.43 571.989 410.155 567.7 414.396 572.214L413.905 572.914C411.259 573.398 408.679 572.421 405.885 571.795C378.24 567.735 364.709 555.909 367.575 526.858C365.576 527.944 363.475 528.832 361.304 529.509C346.932 534.064 332.373 526.65 328.432 511.927C326.623 505.243 327.563 498.113 331.044 492.126C335.126 485.166 340.496 482.188 347.908 480.135Z" fill="black"/>
<path d="M349.759 482.363C362.39 480.563 374.113 489.275 376.032 501.889C377.951 514.503 369.349 526.307 356.754 528.344C343.99 530.408 331.994 521.666 330.049 508.884C328.105 496.102 336.959 484.187 349.759 482.363Z" fill="#FEFEF0"/>
<path d="M350.564 491.233C358.428 489.929 365.858 495.252 367.152 503.118C368.447 510.984 363.114 518.407 355.246 519.692C347.393 520.973 339.986 515.652 338.694 507.801C337.402 499.949 342.714 492.535 350.564 491.233Z" fill="black"/>
<path d="M399.947 589.47C413.781 588.121 426.086 598.252 427.417 612.088C428.747 625.924 418.6 638.215 404.762 639.527C390.951 640.837 378.688 630.713 377.36 616.903C376.031 603.093 386.139 590.817 399.947 589.47Z" fill="black"/>
<path d="M399.742 591.663C407.929 590.734 415.983 594.285 420.819 600.957C425.654 607.628 426.523 616.387 423.093 623.879C419.662 631.371 412.464 636.435 404.254 637.133C391.805 638.191 380.815 629.054 379.582 616.622C378.348 604.19 387.329 593.072 399.742 591.663Z" fill="#FEFEF0"/>
<path d="M398.478 600.777C403.431 599.405 408.74 600.804 412.373 604.44C416.006 608.075 417.401 613.384 416.025 618.336C414.65 623.288 410.715 627.117 405.728 628.357C398.157 630.24 390.478 625.689 388.495 618.144C386.512 610.599 390.96 602.861 398.478 600.777Z" fill="black"/>
<path d="M282.042 407.09C295.503 406.002 307.314 415.994 308.471 429.449C309.629 442.904 299.698 454.766 286.249 455.993C272.702 457.229 260.734 447.209 259.568 433.656C258.402 420.103 268.483 408.187 282.042 407.09Z" fill="black"/>
<path d="M282.417 410.099C294.469 408.943 305.154 417.828 306.216 429.889C307.278 441.949 298.31 452.564 286.241 453.532C274.305 454.49 263.831 445.641 262.781 433.713C261.731 421.785 270.497 411.242 282.417 410.099Z" fill="#FEFEF0"/>
<path d="M281.035 418.692C288.207 417.014 295.385 421.45 297.092 428.615C298.799 435.78 294.392 442.977 287.234 444.713C280.035 446.459 272.787 442.021 271.07 434.815C269.354 427.608 273.821 420.379 281.035 418.692Z" fill="black"/>
<path d="M594.042 165.745C607.066 164.303 618.842 173.563 620.513 186.559C622.183 199.555 613.131 211.492 600.167 213.39C591.575 214.648 582.974 211.172 577.669 204.298C572.364 197.424 571.181 188.223 574.576 180.231C577.97 172.239 585.412 166.701 594.042 165.745Z" fill="black"/>
<path d="M592.646 168.186C604.446 165.955 615.825 173.698 618.079 185.494C620.334 197.289 612.613 208.683 600.821 210.96C588.998 213.244 577.566 205.497 575.305 193.669C573.044 181.841 580.814 170.424 592.646 168.186Z" fill="#FEFEF0"/>
<path d="M593.964 176.592C601.152 175.077 608.199 179.704 609.666 186.902C611.134 194.1 606.46 201.116 599.252 202.535C592.112 203.941 585.176 199.321 583.722 192.19C582.269 185.059 586.843 178.092 593.964 176.592Z" fill="black"/>
<path d="M400.947 511.899C414.143 511.237 425.375 521.401 426.032 534.597C426.688 547.793 416.52 559.022 403.324 559.673C390.134 560.324 378.913 550.163 378.257 536.974C377.601 523.785 387.758 512.56 400.947 511.899Z" fill="black"/>
<path d="M460.829 511.075C472.307 508.93 483.354 516.481 485.525 527.954C487.695 539.426 480.17 550.491 468.702 552.688C457.198 554.892 446.089 547.337 443.912 535.827C441.734 524.317 449.315 513.226 460.829 511.075Z" fill="black"/>
<path d="M599.497 305.631C604.624 306.261 606.644 308.817 610.618 312.265C608.778 320.344 609.377 328.967 617.236 334.065C620.892 336.025 625.941 337.292 623.851 342.895C621.761 348.502 616.829 351.73 611.714 354.179C608.718 355.369 601.169 358.799 598.311 357.668C596.587 354.669 599.88 337.835 599.658 332.962C599.237 323.719 583.801 310.02 599.497 305.631Z" fill="black"/>
<path d="M498.522 535.927C507.247 534.472 515.497 540.373 516.941 549.1C518.384 557.827 512.474 566.07 503.745 567.502C495.031 568.933 486.806 563.035 485.365 554.323C483.924 545.611 489.812 537.379 498.522 535.927Z" fill="black"/>
<path d="M327.461 575.398C332.919 573.796 338.816 575.266 342.883 579.242C346.95 583.219 348.552 589.082 347.072 594.574C345.592 600.066 341.262 604.331 335.747 605.726C327.442 607.827 318.983 602.892 316.724 594.628C314.466 586.363 319.241 577.812 327.461 575.398Z" fill="black"/>
<path d="M510.543 378.249C518.441 377.773 525.229 383.789 525.705 391.687C526.181 399.584 520.164 406.373 512.267 406.849C504.369 407.325 497.581 401.309 497.105 393.411C496.629 385.513 502.646 378.725 510.543 378.249Z" fill="black"/>
<path d="M500.99 287.731C508.33 285.919 515.761 290.349 517.657 297.667C519.554 304.985 515.208 312.466 507.912 314.446C503.118 315.747 497.995 314.37 494.498 310.842C491.001 307.314 489.671 302.178 491.014 297.396C492.358 292.614 496.168 288.922 500.99 287.731Z" fill="black"/>
<path d="M399.314 455.428C404.22 454.618 409.181 456.523 412.284 460.409C415.387 464.294 416.148 469.553 414.274 474.158C412.399 478.764 408.183 481.997 403.249 482.612C395.826 483.537 389.027 478.352 387.956 470.948C386.884 463.545 391.933 456.645 399.314 455.428Z" fill="black"/>
<path d="M476.046 445.777C483.309 444.436 490.295 449.2 491.699 456.451C493.102 463.702 488.399 470.729 481.161 472.195C473.833 473.68 466.7 468.906 465.279 461.566C463.858 454.225 468.694 447.134 476.046 445.777Z" fill="black"/>
<path d="M554.92 242.166C556.981 241.837 557.233 241.825 558.679 242.717C562.728 249.824 553.591 256.908 547.699 258.976C541.93 261 538.668 260.935 532.89 260.41L529.814 258.024C524.301 252.492 519.212 250.015 525.667 243.142C540.251 243.521 538.874 245.088 554.92 242.166Z" fill="black"/>
<path d="M373.04 341.591C374.699 341.356 377.477 340.962 378.593 342.249C380.886 344.895 390.113 364.125 390.348 366.501C388.299 370.306 383.111 369.57 379.638 368.368C373.291 364.959 368.568 361.993 361.413 359.769C360.365 359.444 359.969 358.076 359.734 357.094C360.543 354.152 370.957 343.077 373.04 341.591Z" fill="black"/>
<path d="M244.06 526.911C246.939 528.969 247.724 532.26 252.208 533.893C260.591 537.392 261.641 531.033 267.057 528.647C272.134 526.411 288.971 530.396 290.803 536.172C286.388 541.81 281.967 539.258 275.911 537.494C268.706 542.014 265.584 542.661 257.714 538.673C251.766 535.659 243.568 534.873 244.06 526.911Z" fill="black"/>
<path d="M581.757 324.875C587.287 324.3 592.259 328.263 592.931 333.782C593.603 339.302 589.729 344.342 584.222 345.111C580.572 345.621 576.932 344.122 574.7 341.19C572.468 338.258 571.992 334.35 573.455 330.968C574.918 327.586 578.092 325.256 581.757 324.875Z" fill="black"/>
<path d="M229.758 502.804C233.232 503.708 251.168 516.961 254.477 520.195C257.21 522.867 252.169 526.446 249.568 527.84C239.69 519.033 234.368 515.309 222.164 510.776C224.546 507.311 226.143 505.162 229.758 502.804Z" fill="black"/>
</g>
<defs>
<clipPath id="clip0_981_27787">
<rect width="1024" height="1024" rx="500" fill="white"/>
</clipPath>
</defs>
</svg>
